<svg xmlns="http://www.w3.org/2000/svg" width="154.995" height="154.995" viewBox="0 0 115.824 157.715"><defs><style>.a{opacity:0.5;}.b{fill:#68d3a3;}</style></defs><g class="a" transform="translate(-0.499)"><path class="b" d="M72.868,5.677a3.081,3.081,0,1,0-1.534,5.967A51.759,51.759,0,0,1,93,100.26a47.293,47.293,0,0,0-13.318,20.654H75.046V77.833L82.279,70.6A11.721,11.721,0,1,0,77.9,66.27l-8.109,8.11a3.08,3.08,0,0,0-.9,2.178v44.356H61.492V46.93a11.707,11.707,0,1,0-6.161,0v73.984H47.937V89.362a3.082,3.082,0,0,0-.9-2.179l-8.11-8.109a11.713,11.713,0,1,0-4.381,4.332l7.232,7.232v30.277H37.138A49.006,49.006,0,0,0,23.523,99.989a51.921,51.921,0,0,1-16.859-37.6C6.39,39.047,22.684,17.732,45.408,11.71a3.081,3.081,0,0,0-1.579-5.956A58.784,58.784,0,0,0,12.681,26.49a57.642,57.642,0,0,0,6.688,78.049,42.924,42.924,0,0,1,11.587,17.345,7.7,7.7,0,0,0-3.966,6.731v10.473a7.709,7.709,0,0,0,7.393,7.694v1.239a13.569,13.569,0,0,0,13.554,13.555H68.885a13.569,13.569,0,0,0,13.554-13.555v-1.239a7.709,7.709,0,0,0,7.393-7.694V128.615a7.705,7.705,0,0,0-3.971-6.735,41.064,41.064,0,0,1,11.259-17.04A57.92,57.92,0,0,0,72.868,5.677ZM88.022,54.863a5.545,5.545,0,1,1-5.545,5.545A5.551,5.551,0,0,1,88.022,54.863ZM52.867,35.637a5.545,5.545,0,1,1,5.545,5.545A5.551,5.551,0,0,1,52.867,35.637ZM23.256,73.211A5.545,5.545,0,1,1,28.8,78.756,5.551,5.551,0,0,1,23.256,73.211Zm53.022,74.811a7.4,7.4,0,0,1-7.393,7.393H47.937a7.4,7.4,0,0,1-7.393-7.393V146.79H76.278Zm7.393-8.933a1.542,1.542,0,0,1-1.54,1.54H34.692a1.542,1.542,0,0,1-1.54-1.54V128.615a1.542,1.542,0,0,1,1.54-1.54H82.131a1.542,1.542,0,0,1,1.54,1.54Zm0,0" transform="translate(0 -3.861)"/><path class="b" d="M181.237,6.164a3.08,3.08,0,0,0,3.08-3.08V3.077a3.08,3.08,0,1,0-3.08,3.088Zm0,0" transform="translate(-122.932)"/></g></svg>