<?xml version="1.0" encoding="iso-8859-1"?>
<!-- Generator: Adobe Illustrator 19.0.0, SVG Export Plug-In . SVG Version: 6.00 Build 0)  -->
<svg version="1.1" id="Capa_1" xmlns="http://www.w3.org/2000/svg" xmlns:xlink="http://www.w3.org/1999/xlink" x="0px" y="0px"
	 viewBox="0 0 463.974 463.974" style="enable-background:new 0 0 463.974 463.974;" xml:space="preserve">
<path style="fill:#78B9EB;" d="M463.974,223.984c-0.027-48.957-34.194-91.266-82.048-101.6
	c-11.89-65.145-74.34-108.316-139.485-96.426c-36.327,6.631-67.573,29.63-84.699,62.346c-1.92-0.144-3.824-0.32-5.768-0.32
	c-48.13,0.021-88.795,35.698-95.08,83.416c-42.296,12.773-66.229,57.415-53.456,99.712c10.193,33.752,41.279,56.851,76.536,56.872
	h280C417.411,327.984,463.974,281.422,463.974,223.984z"/>
<path style="fill:#1E81CE;" d="M359.974,351.984h-120v-136h96v-16h-208v16h96v136h-120c-4.418,0-8,3.582-8,8v40h16v-32h112v32h16
	v-32h112v32h16v-40C367.974,355.566,364.392,351.984,359.974,351.984z"/>
<g>
	<circle style="fill:#FF9811;" cx="103.974" cy="415.984" r="24"/>
	<circle style="fill:#FF9811;" cx="231.974" cy="415.984" r="24"/>
	<circle style="fill:#FF9811;" cx="359.974" cy="415.984" r="24"/>
</g>
<g>
	<path style="fill:#FF6243;" d="M167.974,335.984v-76.688l20.288,20.288l11.312-11.312l-33.944-33.944
		c-3.124-3.123-8.188-3.123-11.312,0l-33.944,33.944l11.312,11.312l20.288-20.288v76.688H167.974z"/>
	<path style="fill:#FF6243;" d="M295.974,231.984v76.688l-20.288-20.288l-11.312,11.312l33.944,33.944
		c3.124,3.123,8.188,3.123,11.312,0l33.944-33.944l-11.312-11.312l-20.288,20.288v-76.688H295.974z"/>
</g>
<g>
</g>
<g>
</g>
<g>
</g>
<g>
</g>
<g>
</g>
<g>
</g>
<g>
</g>
<g>
</g>
<g>
</g>
<g>
</g>
<g>
</g>
<g>
</g>
<g>
</g>
<g>
</g>
<g>
</g>
</svg>
