<svg xmlns="http://www.w3.org/2000/svg" width="154.955" height="154.955" viewBox="0 0 154.955 154.955"><defs><style>.a{opacity:0.5;}.b{fill:#91a8f6;}</style></defs><g class="a"><path class="b" d="M27.254,119.833a12.635,12.635,0,0,0-6.1,1.558A71.457,71.457,0,0,1,91.7,7.469a3.027,3.027,0,0,0,1.2-5.934A78.054,78.054,0,0,0,77.478,0a77.477,77.477,0,0,0-60.8,125.493,12.716,12.716,0,1,0,10.581-5.66Zm4.708,17.419a6.657,6.657,0,1,1,1.951-4.708A6.612,6.612,0,0,1,31.961,137.251Zm0,0"/><path class="b" d="M276,51.809a12.685,12.685,0,1,0-4.474,4.106,71.457,71.457,0,0,1-70.417,113.949,3.027,3.027,0,0,0-1.188,5.936,78.107,78.107,0,0,0,15.277,1.506A77.478,77.478,0,0,0,276,51.809ZM260.71,49.471a6.66,6.66,0,1,1,4.708,1.949A6.615,6.615,0,0,1,260.71,49.471Zm0,0" transform="translate(-137.716 -22.351)"/><path class="b" d="M116.582,181.137a3.027,3.027,0,0,0,3.026,3.026h18.924a3.026,3.026,0,0,0,3.026-3.026V175.27a47.394,47.394,0,0,0,11.359-4.708l4.142,4.142a3.025,3.025,0,0,0,4.281,0l13.376-13.385a3.027,3.027,0,0,0,0-4.28l-4.138-4.138a47.393,47.393,0,0,0,4.708-11.359h5.845a3.026,3.026,0,0,0,3.026-3.026V119.592a3.026,3.026,0,0,0-3.026-3.026h-5.846a47.4,47.4,0,0,0-4.706-11.358l4.115-4.115a3.027,3.027,0,0,0,0-4.282L161.306,83.435a3.026,3.026,0,0,0-4.28,0l-4.109,4.111a47.393,47.393,0,0,0-11.359-4.708V77.026A3.026,3.026,0,0,0,138.532,74H119.608a3.027,3.027,0,0,0-3.026,3.026v5.814a47.353,47.353,0,0,0-11.358,4.706l-4.111-4.111a3.028,3.028,0,0,0-4.28,0L83.449,96.812a3.025,3.025,0,0,0,0,4.281l4.115,4.115a47.385,47.385,0,0,0-4.708,11.358H77.021A3.026,3.026,0,0,0,74,119.591l-.011,18.924a3.025,3.025,0,0,0,3.026,3.028h5.845A47.393,47.393,0,0,0,87.563,152.9l-4.138,4.138a3.026,3.026,0,0,0,0,4.28L96.8,174.7a3.027,3.027,0,0,0,2.14.888h0a3.026,3.026,0,0,0,2.14-.887l4.141-4.142a47.434,47.434,0,0,0,11.359,4.708ZM106.41,164.2a3.027,3.027,0,0,0-3.783.4l-3.685,3.685-9.1-9.1,3.681-3.683a3.026,3.026,0,0,0,.4-3.782A41.425,41.425,0,0,1,88.2,137.88a3.027,3.027,0,0,0-2.959-2.39h-5.2l.007-12.871h5.191a3.026,3.026,0,0,0,2.959-2.39,41.429,41.429,0,0,1,5.733-13.834,3.026,3.026,0,0,0-.4-3.782l-3.658-3.659,9.1-9.1,3.654,3.655a3.029,3.029,0,0,0,3.783.4,41.408,41.408,0,0,1,13.834-5.733,3.028,3.028,0,0,0,2.39-2.959V80.053h12.871V85.22a3.025,3.025,0,0,0,2.39,2.959,41.443,41.443,0,0,1,13.834,5.733,3.024,3.024,0,0,0,3.782-.4l3.655-3.654,9.1,9.1-3.658,3.658a3.026,3.026,0,0,0-.4,3.783,41.453,41.453,0,0,1,5.733,13.834,3.025,3.025,0,0,0,2.959,2.39h5.2v12.871h-5.2a3.027,3.027,0,0,0-2.959,2.39,41.419,41.419,0,0,1-5.733,13.834,3.027,3.027,0,0,0,.4,3.783l3.681,3.681-9.1,9.1-3.685-3.684a3.026,3.026,0,0,0-3.783-.4A41.452,41.452,0,0,1,137.9,169.93a3.026,3.026,0,0,0-2.39,2.959v5.222H122.635v-5.222a3.028,3.028,0,0,0-2.39-2.959A41.428,41.428,0,0,1,106.41,164.2Zm0,0" transform="translate(-51.593 -51.604)"/><path class="b" d="M223.386,198.378a25.007,25.007,0,1,0-25.007,25.007A25.035,25.035,0,0,0,223.386,198.378Zm-43.962,0a18.954,18.954,0,1,1,18.954,18.954A18.975,18.975,0,0,1,179.424,198.378Zm0,0" transform="translate(-120.901 -120.901)"/><path class="b" d="M341.1,23.865a3.029,3.029,0,1,0-2.139-.887A3.048,3.048,0,0,0,341.1,23.865Zm0,0" transform="translate(-235.76 -12.419)"/><path class="b" d="M157.386,474.359a3.027,3.027,0,1,0,2.14.887A3.05,3.05,0,0,0,157.386,474.359Zm0,0" transform="translate(-107.643 -330.796)"/></g></svg>