<svg xmlns="http://www.w3.org/2000/svg" width="156.357" height="156.357" viewBox="0 0 156.357 156.357"><defs><style>.a{opacity:0.584;}.b{fill:#91a8f6;}</style></defs><g class="a"><g transform="translate(91.616 58.023)"><path class="b" d="M303.054,190a3.054,3.054,0,1,0,3.054,3.054A3.055,3.055,0,0,0,303.054,190Z" transform="translate(-300 -190)"/></g><g transform="translate(0 0)"><path class="b" d="M152.779,135.505,112.016,94.743a60.529,60.529,0,0,0,10.138-33.665,61.077,61.077,0,1,0-61.077,61.077,60.532,60.532,0,0,0,33.665-10.138l11.267,11.267,0,0,29.49,29.49a12.214,12.214,0,1,0,17.274-17.273ZM93.306,105.58h0A55.025,55.025,0,1,1,105.58,93.306,55.237,55.237,0,0,1,93.306,105.58Zm6.407,2.769a61.282,61.282,0,0,0,8.635-8.635l8.664,8.664a74.124,74.124,0,0,1-8.635,8.635ZM148.46,148.46a6.1,6.1,0,0,1-8.636,0l-27.117-27.117a80.245,80.245,0,0,0,8.635-8.635l27.118,27.118a6.1,6.1,0,0,1,0,8.634Z" transform="translate(0 0)"/></g><g transform="translate(12.215 12.215)"><path class="b" d="M88.862,40a48.862,48.862,0,1,0,48.862,48.862A48.917,48.917,0,0,0,88.862,40Zm0,91.616a42.754,42.754,0,1,1,42.754-42.754A42.8,42.8,0,0,1,88.862,131.616Z" transform="translate(-40 -40)"/></g><g transform="translate(58.023 24.431)"><path class="b" d="M227.277,103.537A36.7,36.7,0,0,0,193.054,80a3.054,3.054,0,1,0,0,6.108,30.747,30.747,0,0,1,28.522,19.62,3.054,3.054,0,1,0,5.7-2.191Z" transform="translate(-190 -80)"/></g></g></svg>